<?xml version="1.0" encoding="iso-8859-1"?>
<!-- Uploaded to: SVG Repo, www.svgrepo.com, Generator: SVG Repo Mixer Tools -->
<svg fill="#000000" height="800px" width="800px" version="1.1" id="Layer_1" xmlns="http://www.w3.org/2000/svg" xmlns:xlink="http://www.w3.org/1999/xlink" 
	 viewBox="0 0 512 512" xml:space="preserve">
<g>
	<g>
		<path d="M287.081,225.535h-63.642c-5.244,0-9.494,4.25-9.494,9.493v63.642c0,5.244,4.25,9.494,9.494,9.494h63.642
			c5.243,0,9.493-4.25,9.493-9.493v-63.643C296.575,229.785,292.324,225.535,287.081,225.535z"/>
	</g>
</g>
<g>
	<g>
		<path d="M154.016,225.535H90.374c-5.244,0-9.494,4.25-9.494,9.493v63.642c0,5.244,4.25,9.494,9.494,9.494h63.642
			c5.243,0,9.493-4.25,9.493-9.493v-63.643C163.509,229.785,159.259,225.535,154.016,225.535z"/>
	</g>
</g>
<g>
	<g>
		<path d="M154.016,347.882H90.374c-5.244,0-9.494,4.25-9.494,9.493v63.642c0,5.243,4.25,9.493,9.494,9.493h63.642
			c5.243,0,9.493-4.25,9.493-9.493v-63.642C163.509,352.132,159.259,347.882,154.016,347.882z"/>
	</g>
</g>
<g>
	<g>
		<path d="M421.625,225.535h-63.642c-5.243,0-9.493,4.25-9.493,9.493v63.642c0,5.244,4.25,9.494,9.493,9.494h63.642
			c5.243,0,9.493-4.25,9.493-9.493v-63.643C431.118,229.785,426.868,225.535,421.625,225.535z"/>
	</g>
</g>
<g>
	<g>
		<path d="M421.625,347.882h-63.642c-5.243,0-9.493,4.25-9.493,9.493v63.642c0,5.243,4.25,9.493,9.493,9.493h63.642
			c5.243,0,9.493-4.25,9.493-9.493v-63.642C431.118,352.132,426.868,347.882,421.625,347.882z"/>
	</g>
</g>
<g>
	<g>
		<path d="M278.783,389.196l21.693-21.693c6.496-6.496,6.496-17.027,0-23.523c-6.495-6.496-17.027-6.496-23.523,0l-21.693,21.693
			l-21.693-21.693c-6.495-6.496-17.027-6.496-23.523,0c-6.496,6.496-6.496,17.027,0,23.523l21.693,21.693l-21.693,21.693
			c-6.496,6.496-6.496,17.027,0,23.523c6.495,6.496,17.027,6.497,23.523,0l21.693-21.693l21.693,21.693
			c6.495,6.496,17.027,6.497,23.523,0c6.496-6.496,6.496-17.027,0-23.523L278.783,389.196z"/>
	</g>
</g>
<g>
	<g>
		<path d="M255.445,7.98c-9.186,0-16.633,7.447-16.633,16.633v76.883c0,9.186,7.447,16.633,16.633,16.633
			s16.633-7.447,16.633-16.633V24.613C272.078,15.427,264.631,7.98,255.445,7.98z"/>
	</g>
</g>
<g>
	<g>
		<path d="M93.548,7.98c-9.186,0-16.633,7.447-16.633,16.633v76.883c0,9.186,7.447,16.633,16.633,16.633s16.633-7.447,16.633-16.633
			V24.613C110.182,15.427,102.734,7.98,93.548,7.98z"/>
	</g>
</g>
<g>
	<g>
		<path d="M418.45,7.98c-9.186,0-16.633,7.447-16.633,16.633v76.883c0,9.186,7.447,16.633,16.633,16.633s16.633-7.447,16.633-16.633
			V24.613C435.084,15.427,427.636,7.98,418.45,7.98z"/>
	</g>
</g>
<g>
	<g>
		<path d="M495.367,64.394h-27.016c0,14.354,0,23.435,0,37.102c0,27.559-22.341,49.9-49.9,49.9c-27.559,0-49.9-22.341-49.9-49.9
			c0-13.689,0-22.763,0-37.102h-62.097l-1.11,37.102c0,27.373-22.043,49.587-49.345,49.885c-0.185,0.002-0.368,0.014-0.554,0.014
			c-27.559,0-49.9-22.341-49.9-49.9c0-13.689,0-22.763,0-37.102h-62.097c0,14.354,0,23.435,0,37.102c0,27.559-22.341,49.9-49.9,49.9
			c-27.559,0-49.9-22.341-49.9-49.9c0-13.689,0-22.763,0-37.102H16.633C7.447,64.394,0,71.842,0,81.028v406.359
			c0,9.186,7.447,16.633,16.633,16.633h478.734c9.186,0,16.633-7.447,16.633-16.633V81.028
			C512,71.842,504.553,64.394,495.367,64.394z M478.734,470.754H33.266V184.878h445.467V470.754z"/>
	</g>
</g>
</svg>